<!DOCTYPE svg PUBLIC "-//W3C//DTD SVG 20010904//EN" "http://www.w3.org/TR/2001/REC-SVG-20010904/DTD/svg10.dtd">
<svg version="1.0" xmlns="http://www.w3.org/2000/svg" width="941px" height="940px" viewBox="0 0 9410 9400" preserveAspectRatio="xMidYMid meet">
<g id="layer101" fill="#e24329" stroke="none">
<path d="M3247 9200 c-4 -113 -7 -502 -7 -865 l0 -660 -163 -83 c-178 -89 -392 -226 -545 -348 -192 -153 -470 -451 -590 -631 -19 -29 -39 -53 -44 -53 -5 0 -196 56 -425 125 -229 69 -418 123 -420 121 -2 -2 137 -135 309 -295 172 -161 317 -297 322 -304 5 -8 -11 -57 -47 -137 -266 -603 -328 -1295 -176 -1952 14 -61 25 -88 35 -88 8 0 450 117 982 259 532 143 979 263 995 266 l27 7 0 128 c0 203 35 359 123 539 105 218 309 428 520 537 54 27 75 44 72 54 -2 8 -216 807 -475 1775 -259 968 -475 1771 -479 1785 -5 15 -10 -57 -14 -180z"/>
<path d="M6905 5103 l-990 -266 3 -104 c15 -444 -240 -881 -638 -1095 -44 -24 -80 -45 -80 -48 0 -13 951 -3557 959 -3575 6 -13 10 124 10 375 1 217 4 608 8 868 l6 473 103 48 c449 212 887 582 1179 994 43 62 50 68 74 62 30 -8 790 -235 809 -242 6 -3 12 -1 12 4 0 5 -144 142 -319 306 l-319 297 58 132 c254 586 323 1238 195 1853 -35 170 -39 180 -61 182 -10 1 -464 -118 -1009 -264z"/>
<path d="M1788 3731 c-977 -262 -1780 -480 -1784 -484 -4 -4 328 -7 737 -7 409 0 800 -3 869 -7 l125 -6 55 -116 c206 -434 583 -882 965 -1148 46 -32 84 -63 84 -68 1 -9 -226 -781 -244 -832 -2 -7 -1 -13 3 -13 4 0 132 134 284 298 152 164 288 308 301 321 l25 22 53 -26 c162 -82 468 -183 695 -229 293 -60 680 -76 964 -42 136 16 422 70 445 84 9 5 -46 223 -214 852 -125 465 -246 917 -270 1005 l-42 160 -137 0 c-148 1 -252 18 -382 62 -296 101 -557 327 -694 601 -17 34 -32 52 -44 51 -9 0 -817 -215 -1794 -478z"/>
</g>
<g id="layer102" fill="#fc6d26" stroke="none">
<path d="M6555 8074 c-143 -154 -278 -298 -300 -322 l-40 -43 -111 49 c-292 130 -616 217 -944 253 -155 17 -499 14 -665 -6 -167 -20 -455 -76 -455 -89 0 -4 507 -1897 525 -1963 l15 -52 88 6 c160 10 381 -35 549 -112 230 -106 456 -320 561 -532 20 -40 42 -73 49 -73 24 0 3568 952 3578 961 5 5 -308 9 -766 9 -427 0 -817 3 -867 6 l-91 7 -31 71 c-48 108 -133 257 -224 396 -198 301 -435 551 -731 773 -81 60 -119 95 -117 106 2 9 57 195 123 415 66 219 118 403 117 408 -2 6 -120 -115 -263 -268z"/>
<path d="M1788 3731 c-977 -262 -1780 -480 -1784 -484 -4 -4 328 -7 737 -7 409 0 800 -3 869 -7 l125 -6 55 -116 c206 -434 583 -882 965 -1148 46 -32 84 -63 84 -68 1 -9 -226 -781 -244 -832 -2 -7 -1 -13 3 -13 4 0 132 134 284 298 152 164 288 308 301 321 l25 22 53 -26 c162 -82 468 -183 695 -229 292 -59 680 -76 960 -42 144 17 372 59 427 79 l34 12 -226 845 c-125 465 -246 917 -270 1005 l-42 160 -137 0 c-148 1 -252 18 -382 62 -296 101 -557 327 -694 601 -17 34 -32 52 -44 51 -9 0 -817 -215 -1794 -478z"/>
</g>


</svg>